<?xml version="1.0" encoding="UTF-8"?>
<svg id="Layer_2" data-name="Layer 2" xmlns="http://www.w3.org/2000/svg" viewBox="0 0 180 180">
  <defs>
    <style>
      .cls-1 {
        fill: #d9d9d9;
      }

      .cls-1, .cls-2 {
        stroke-width: 0px;
      }

      .cls-2 {
        fill: #fff;
      }
    </style>
  </defs>
  <g id="Layer_1-2" data-name="Layer 1">
    <g id="bad-icon-grey">
      <path class="cls-1" d="M44.91,152.9L10.94,117.09c-22.29-21.81-6.08-44.78,9.37-62.42l21.82-26.92C57.76,8.46,75.8-13.78,108.88,10.94l56.86,53.02c28.32,26.62,8.67,43.68-9.1,69.04l-17.95,24.89c-25.21,33.44-64.22,26.66-93.78-4.99Z"/>
      <path class="cls-2" d="M72.29,87.22c-.53,0-1.07-.17-1.53-.52-1.09-.85-1.29-2.42-.45-3.51,4.36-5.62,11.59-8.36,19.36-7.31,5.49.74,9.75,3.27,11.13,6.61.53,1.28-.08,2.74-1.36,3.26-1.28.52-2.74-.08-3.26-1.36-.56-1.36-3.21-3.02-7.17-3.56-2.24-.3-9.93-.8-14.74,5.42-.49.64-1.23.97-1.98.97Z"/>
      <path class="cls-2" d="M63.09,51.71c-1,0-1.55-.08-1.62-.1-.82-.13-1.37-.91-1.24-1.72.13-.82.91-1.37,1.72-1.24.05,0,5.18.72,14.93-3.27.77-.31,1.64.06,1.96.82.31.77-.05,1.64-.82,1.96-7.51,3.07-12.54,3.55-14.94,3.55Z"/>
      <path class="cls-2" d="M109.25,51.71c1,0,1.55-.08,1.62-.1.82-.13,1.37-.91,1.24-1.72-.13-.82-.91-1.37-1.72-1.24-.05,0-5.18.72-14.93-3.27-.77-.31-1.64.06-1.96.82-.31.77.05,1.64.82,1.96,7.51,3.07,12.54,3.55,14.94,3.55Z"/>
      <ellipse class="cls-2" cx="70.38" cy="62.92" rx="4.05" ry="6.06"/>
      <ellipse class="cls-2" cx="100.41" cy="61" rx="4.05" ry="6.06"/>
    </g>
  </g>
</svg>