<?xml version="1.0" encoding="UTF-8"?>
<svg id="Layer_2" data-name="Layer 2" xmlns="http://www.w3.org/2000/svg" viewBox="0 0 180 227.81">
  <defs>
    <style>
      .cls-1 {
        fill: #fff;
      }

      .cls-1, .cls-2 {
        stroke-width: 0px;
      }

      .cls-2 {
        fill: #f78b98;
      }
    </style>
  </defs>
  <g id="Layer_1-2" data-name="Layer 1">
    <g id="good-mascot">
      <path class="cls-2" d="M55.06,191.43c-8.51-1.35-15.31,4.57-14.66,18.8.16,3.55,3.1,6.34,6.65,6.34h24.28c3.81,0,6.84-3.2,6.64-7l-3.15-59.81c-.19-3.53-3.1-6.3-6.64-6.3h0c-3.76,0-6.78,3.12-6.65,6.88l1.17,34.31c.14,4.16-3.53,7.45-7.64,6.8Z"/>
      <path class="cls-2" d="M102.52,202.67c-8.51-1.35-15.31,4.57-14.66,18.8.16,3.55,3.1,6.34,6.65,6.34h24.28c3.81,0,6.84-3.2,6.64-7l-3.15-59.81c-.19-3.53-3.1-6.3-6.64-6.3h0c-3.76,0-6.78,3.12-6.65,6.88l1.17,34.31c.14,4.16-3.53,7.45-7.64,6.8Z"/>
      <g>
        <path class="cls-2" d="M179.92,60.51c-1.06-17.16-13.36-30.85-28.75-32.86-3.08-.4-7.87.44-11.4,1.16-2.44.5-4.78-1.12-5.56-3.74-3.55-11.86-13.96-19.73-28.39-19.73-6.49,0-12.5,1.75-17.36,4.7-4.49,2.73-10.12,2.13-13.93-1.68C69.02,2.84,61.61-.38,53.52.04c-14.93.77-27.1,14.2-27.88,30.76-.06,1.35-.05,2.69.03,4.01.36,5.7-1.69,11.3-5.73,14.85C7.56,60.58,0,75.12,0,91.08c0,29.39,25.61,53.95,59.81,59.97,4.16.73,7.68,3.91,8.99,8.35,3.56,12.06,12.37,20.6,22.67,20.6,7.32,0,13.89-4.31,18.35-11.13,2.34-3.58,6.49-4.95,10.24-3.43,3.12,1.26,6.54,1.96,10.13,1.96,14.57,0,32.44-12.86,26.37-25.67-1.25-2.64-6.21-11.22,2.57-12.82,7.64-1.22,20.86-7.58,20.86-22.5,0-4.65-.87-9.04-2.41-12.94-2.08-5.27-2.2-11.22-.16-16.52,1.93-4.99,2.85-10.58,2.49-16.44Z"/>
        <path class="cls-1" d="M63.13,87.49c-10.07,0-19.2-2.59-24.55-7.2-1.05-.9-1.16-2.48-.26-3.53.9-1.05,2.48-1.16,3.53-.26,9.94,8.57,35.84,8.56,51.9-3.68,1.1-.84,2.67-.62,3.5.47.84,1.1.62,2.67-.47,3.5-9.71,7.4-22.28,10.7-33.65,10.7Z"/>
        <ellipse class="cls-1" cx="53.54" cy="57.4" rx="4.05" ry="6.06"/>
        <ellipse class="cls-1" cx="83.57" cy="54.49" rx="4.05" ry="6.06"/>
      </g>
    </g>
  </g>
</svg>