<?xml version="1.0" encoding="UTF-8"?>
<svg id="Layer_2" data-name="Layer 2" xmlns="http://www.w3.org/2000/svg" viewBox="0 0 180 225.91">
  <defs>
    <style>
      .cls-1 {
        fill: #fff;
      }

      .cls-1, .cls-2 {
        stroke-width: 0px;
      }

      .cls-2 {
        fill: #ff9e88;
      }
    </style>
  </defs>
  <g id="Layer_1-2" data-name="Layer 1">
    <g id="great-mascot">
      <path class="cls-2" d="M120.09,191.18c8.15-1.29,14.67,4.38,14.05,18.01-.16,3.4-2.97,6.07-6.37,6.07h-23.26c-3.65,0-6.56-3.06-6.36-6.71l3.02-57.31c.18-3.39,2.98-6.04,6.36-6.04h0c3.61,0,6.49,2.99,6.37,6.59l-1.12,32.87c-.14,3.98,3.38,7.14,7.32,6.51Z"/>
      <path class="cls-2" d="M71.26,201.83c8.15-1.29,14.67,4.38,14.05,18.01-.16,3.4-2.97,6.07-6.37,6.07h-23.26c-3.65,0-6.56-3.06-6.36-6.71l3.02-57.31c.18-3.39,2.98-6.04,6.36-6.04h0c3.61,0,6.49,2.99,6.37,6.59l-1.12,32.87c-.14,3.98,3.38,7.14,7.32,6.51Z"/>
      <g>
        <path class="cls-2" d="M14.44,99.31c4.97-4.76,7.69-11.4,7.68-18.36,0-.04,0-.08,0-.12,0-45.29,36.38-81.87,80.84-80.8,41.88,1.01,76.03,35.98,77.02,78.85,1.05,45.53-34.69,82.78-78.92,82.77-.06,0-.12,0-.18,0-10.18-.02-20.13,3.09-28.33,9.28-8.14,6.15-18.36,9.58-29.37,9.01C19.51,178.71.52,158.64.01,134.39c-.29-13.85,5.32-26.35,14.43-35.08Z"/>
        <path class="cls-1" d="M126.83,69.35c-8.38,0-15.29-1.93-20.53-4.23-11.6-5.09-17.68-12.89-17.93-13.22-.84-1.1-.64-2.67.46-3.51,1.1-.84,2.67-.63,3.51.46.9,1.16,22.59,28.33,62.78,8.13,1.24-.62,2.74-.12,3.36,1.11.62,1.23.12,2.74-1.11,3.36-11.63,5.84-21.87,7.91-30.53,7.91Z"/>
        <path class="cls-1" d="M106.85,45.62c-.73,0-1.45-.31-1.94-.92-.87-1.07-.71-2.64.36-3.52l3.36-2.74-2.99-3.53c-.89-1.05-.76-2.63.29-3.52,1.05-.89,2.63-.76,3.52.29l3.52,4.16c.73.87,1.08,1.96.98,3.1s-.65,2.15-1.53,2.87l-4,3.26c-.46.38-1.02.56-1.58.56ZM109.16,39.06h0,0Z"/>
        <path class="cls-1" d="M138.79,48.53c-.71,0-1.42-.3-1.91-.88l-3.61-4.27c-.74-.88-1.09-1.99-.99-3.13.11-1.14.65-2.17,1.54-2.9l4.11-3.35c1.07-.87,2.65-.71,3.52.36.87,1.07.71,2.64-.36,3.52l-3.51,2.86,3.12,3.68c.89,1.05.76,2.63-.29,3.52-.47.4-1.04.59-1.61.59Z"/>
      </g>
    </g>
  </g>
</svg>