<?xml version="1.0" encoding="UTF-8"?>
<svg id="Layer_2" data-name="Layer 2" xmlns="http://www.w3.org/2000/svg" viewBox="0 0 268 347.44">
  <defs>
    <style>
      .cls-1 {
        fill: #465939;
        font-family: Quicksand-Bold, Quicksand;
        font-size: 48px;
        font-variation-settings: 'wght' 700;
        font-weight: 700;
      }

      .cls-2 {
        fill: #a7bf87;
      }

      .cls-2, .cls-3 {
        stroke-width: 0px;
      }

      .cls-3 {
        fill: #fff;
      }
    </style>
  </defs>
  <g id="Layer_1-2" data-name="Layer 1">
    <g id="logo-colour">
      <g id="logo-colour-2" data-name="logo-colour">
        <path class="cls-2" d="M233.89,4.2H34.1c-16.52,0-29.9,13.39-29.9,29.9v178.69c30.9,40.58,79.12,20.51,106.09-6.77,2.8-2.83,6.87-3.96,10.75-3.12,46.36,10.02,124.94-17.86,124.94-81.09v-10.73c0-4.47,1.46-8.83,4.15-12.39,5.46-7.21,9.98-14.16,13.66-20.87v-43.72c0-16.52-13.39-29.91-29.91-29.91Z"/>
        <path class="cls-2" d="M231.66,0H36.34C16.35,0,0,16.35,0,36.34v195.32c0,19.99,16.35,36.34,36.34,36.34h195.32c19.99,0,36.34-16.35,36.34-36.34V36.34c0-19.99-16.35-36.34-36.34-36.34ZM263.8,231.66c0,17.75-14.39,32.14-32.14,32.14H36.34c-17.75,0-32.14-14.39-32.14-32.14V36.34C4.2,18.59,18.59,4.2,36.34,4.2h195.32c17.75,0,32.14,14.39,32.14,32.14v195.32Z"/>
        <path class="cls-3" d="M76.12,73.24c-4.85,0-10.49-1.46-16.96-5.25-1.19-.7-1.59-2.23-.9-3.42.7-1.19,2.23-1.59,3.42-.9,8.75,5.12,21.24,8.44,31.01-4.87.82-1.11,2.38-1.36,3.49-.54,1.11.82,1.35,2.38.54,3.49-3.67,4.99-10.4,11.48-20.6,11.48Z"/>
        <path class="cls-3" d="M130.72,61.7c-3.96,0-8.5-.85-13.7-2.9-1.28-.51-1.91-1.96-1.41-3.24.51-1.28,1.95-1.92,3.24-1.41,9.46,3.73,22.32,5.11,29.93-9.49.64-1.23,2.15-1.7,3.37-1.06,1.22.64,1.7,2.15,1.06,3.37-3.2,6.15-9.93,14.74-22.5,14.74Z"/>
        <path class="cls-3" d="M83.02,109.22c-17.16,0-32.35-3.37-43.26-9.92-1.18-.71-1.57-2.25-.86-3.43.71-1.18,2.25-1.57,3.43-.86,39.19,23.51,113.89.47,147.54-34.89.95-1,2.53-1.04,3.53-.09,1,.95,1.04,2.53.09,3.53-19.27,20.24-48.13,35.63-79.19,42.23-10.79,2.29-21.37,3.42-31.29,3.42Z"/>
      </g>
      <text class="cls-1" transform="translate(19.79 336.83)"><tspan x="0" y="0">Tranquify</tspan></text>
    </g>
  </g>
</svg>