<svg width="55" height="55" viewBox="0 0 55 55" fill="none" xmlns="http://www.w3.org/2000/svg">
<circle cx="27.5" cy="27.5" r="27.5" fill="#9DB580"/>
<mask id="mask0_923_2154" style="mask-type:alpha" maskUnits="userSpaceOnUse" x="15" y="14" width="26" height="26">
<rect x="15" y="14" width="26" height="26" fill="#D9D9D9"/>
</mask>
<g mask="url(#mask0_923_2154)">
<path d="M19.1739 38.2095C18.7834 38.6 18.1502 38.6 17.7597 38.2095L16.7906 37.2404C16.4001 36.8498 16.4001 36.2167 16.7906 35.8261L24.9097 27.707C25.3002 27.3165 25.3002 26.6833 24.9097 26.2928L16.7906 18.1737C16.4001 17.7832 16.4001 17.15 16.7906 16.7595L17.7597 15.7904C18.1502 15.3998 18.7834 15.3998 19.1739 15.7904L27.2931 23.9095C27.6836 24.3 28.3167 24.3 28.7073 23.9095L36.8264 15.7904C37.2169 15.3998 37.8501 15.3998 38.2406 15.7904L39.2097 16.7595C39.6002 17.15 39.6002 17.7832 39.2097 18.1737L31.0906 26.2928C30.7001 26.6833 30.7001 27.3165 31.0906 27.707L39.2097 35.8261C39.6002 36.2167 39.6002 36.8498 39.2097 37.2404L38.2406 38.2095C37.8501 38.6 37.2169 38.6 36.8264 38.2095L28.7073 30.0904C28.3167 29.6998 27.6836 29.6998 27.2931 30.0904L19.1739 38.2095Z" fill="#1C1B1F"/>
</g>
</svg>
