<?xml version="1.0" encoding="UTF-8"?>
<svg id="Layer_2" data-name="Layer 2" xmlns="http://www.w3.org/2000/svg" viewBox="0 0 180 180">
  <defs>
    <style>
      .cls-1 {
        fill: #567751;
      }

      .cls-1, .cls-2 {
        stroke-width: 0px;
      }

      .cls-2 {
        fill: #fff;
      }
    </style>
  </defs>
  <g id="Layer_1-2" data-name="Layer 1">
    <g id="ok-icon">
      <path class="cls-1" d="M94.92,180h-8.75c-41.52,0-68.03-25.41-74.87-61.18L0,51.54C0,28.76,17.97,12.82,51.07,10.12L130.94.43c22.6-3.28,54.11,12.51,48.38,38.48l-14.77,79.56c-10.2,32.94-28.2,61.53-69.62,61.53Z"/>
      <path class="cls-2" d="M68.4,75.37c-1.25,0-2.32-.93-2.48-2.2-.17-1.37.81-2.62,2.18-2.79l43.2-5.28c1.39-.17,2.62.81,2.79,2.18.17,1.37-.81,2.62-2.18,2.79l-43.2,5.28c-.1.01-.21.02-.31.02Z"/>
      <ellipse class="cls-2" cx="72.54" cy="46.35" rx="4.05" ry="6.06"/>
      <ellipse class="cls-2" cx="102.63" cy="42.57" rx="4.05" ry="6.06"/>
    </g>
  </g>
</svg>