<svg width="21" height="19" viewBox="0 0 21 19" fill="none" xmlns="http://www.w3.org/2000/svg">
<path d="M10.4629 18.4545L9.07781 17.1545C7.46985 15.6378 6.1405 14.3295 5.08975 13.2295C4.039 12.1295 3.20318 11.142 2.58229 10.267C1.96139 9.39199 1.52756 8.58783 1.28079 7.85449C1.03403 7.12116 0.910645 6.37116 0.910645 5.60449C0.910645 4.03783 1.41214 2.72949 2.41512 1.67949C3.41811 0.629492 4.66786 0.104492 6.16438 0.104492C6.99224 0.104492 7.7803 0.287826 8.52855 0.654492C9.27681 1.02116 9.92159 1.53783 10.4629 2.20449C11.0042 1.53783 11.649 1.02116 12.3972 0.654492C13.1455 0.287826 13.9335 0.104492 14.7614 0.104492C16.2579 0.104492 17.5077 0.629492 18.5106 1.67949C19.5136 2.72949 20.0151 4.03783 20.0151 5.60449C20.0151 6.37116 19.8917 7.12116 19.645 7.85449C19.3982 8.58783 18.9644 9.39199 18.3435 10.267C17.7226 11.142 16.8868 12.1295 15.836 13.2295C14.7853 14.3295 13.4559 15.6378 11.848 17.1545L10.4629 18.4545Z" fill="#9DB580"/>
</svg>
