<svg width="20" height="20" viewBox="0 0 20 20" fill="none" xmlns="http://www.w3.org/2000/svg">
<path d="M18.3026 19.8768L11.3564 12.9199C10.8051 13.3616 10.1712 13.7113 9.45449 13.969C8.73782 14.2266 7.97521 14.3555 7.16667 14.3555C5.16368 14.3555 3.46848 13.6607 2.08109 12.2712C0.693697 10.8816 0 9.18381 0 7.17773C0 5.17164 0.693697 3.47384 2.08109 2.0843C3.46848 0.694767 5.16368 0 7.16667 0C9.16966 0 10.8649 0.694767 12.2522 2.0843C13.6396 3.47384 14.3333 5.17164 14.3333 7.17773C14.3333 7.98752 14.2047 8.7513 13.9474 9.46908C13.6902 10.1868 13.341 10.8218 12.9 11.3739L19.8462 18.3308L18.3026 19.8768ZM7.16667 12.1469C8.54487 12.1469 9.71635 11.6638 10.6811 10.6976C11.6458 9.73134 12.1282 8.55806 12.1282 7.17773C12.1282 5.79739 11.6458 4.62411 10.6811 3.65788C9.71635 2.69165 8.54487 2.20853 7.16667 2.20853C5.78846 2.20853 4.61699 2.69165 3.65224 3.65788C2.6875 4.62411 2.20513 5.79739 2.20513 7.17773C2.20513 8.55806 2.6875 9.73134 3.65224 10.6976C4.61699 11.6638 5.78846 12.1469 7.16667 12.1469Z" fill="#3F4636"/>
</svg>
