<svg width="52" height="52" viewBox="0 0 52 52" fill="none" xmlns="http://www.w3.org/2000/svg">
<circle cx="26" cy="26" r="26" fill="#9DB580"/>
<path d="M25.645 40C23.615 40 21.7119 39.6133 19.9356 38.84C18.1594 38.0667 16.6127 37.0215 15.2956 35.7044C13.9785 34.3873 12.9333 32.8406 12.16 31.0644C11.3867 29.2881 11 27.385 11 25.355C11 21.8267 12.1237 18.7152 14.3713 16.0206C16.6188 13.326 19.4825 11.6525 22.9625 11C22.5275 13.3925 22.6604 15.7306 23.3613 18.0144C24.0621 20.2981 25.2704 22.2979 26.9863 24.0138C28.7021 25.7296 30.7019 26.9379 32.9856 27.6388C35.2694 28.3396 37.6075 28.4725 40 28.0375C39.3717 31.5175 37.7042 34.3813 34.9975 36.6288C32.2908 38.8763 29.1733 40 25.645 40ZM25.645 37.1C27.7717 37.1 29.7413 36.5683 31.5538 35.505C33.3663 34.4417 34.7921 32.9796 35.8313 31.1188C33.7529 30.9254 31.7833 30.3998 29.9225 29.5419C28.0617 28.684 26.3942 27.5179 24.92 26.0438C23.4458 24.5696 22.2738 22.9021 21.4038 21.0413C20.5338 19.1804 20.0142 17.2108 19.845 15.1325C17.9842 16.1717 16.5281 17.6035 15.4769 19.4281C14.4256 21.2527 13.9 23.2283 13.9 25.355C13.9 28.6175 15.0419 31.3906 17.3256 33.6744C19.6094 35.9581 22.3825 37.1 25.645 37.1Z" fill="#1C1B1F"/>
</svg>
