<svg width="52" height="52" viewBox="0 0 52 52" fill="none" xmlns="http://www.w3.org/2000/svg">
<circle cx="26" cy="26" r="26" fill="#9DB580"/>
<path d="M21.3159 43C18.1726 43 15.5008 41.8856 13.3005 39.6567C11.1002 37.4278 10 34.7393 10 31.5911C10 28.443 11.0876 25.7796 13.2627 23.6011C15.4379 21.4226 18.0971 20.3333 21.2404 20.3333H21.7308L22.7492 18.5578C23.051 18.0037 23.5036 17.6448 24.1071 17.4811C24.7106 17.3174 25.289 17.3993 25.8422 17.7267L26.9738 18.3689L27.1624 18.0667C27.7408 16.9837 28.646 16.2785 29.8782 15.9511C31.1104 15.6237 32.2671 15.7748 33.3484 16.4044L34.6686 17.16L33.1598 19.7667L31.8396 19.0111C31.4876 18.8096 31.1041 18.7656 30.6892 18.8789C30.2743 18.9922 29.9662 19.2252 29.7651 19.5778L29.5765 19.88L31.0852 20.7489C31.6133 21.0511 31.9591 21.5044 32.1225 22.1089C32.286 22.7133 32.2168 23.28 31.9151 23.8089L30.8966 25.6222C31.475 26.5289 31.9088 27.4922 32.198 28.5122C32.4872 29.5322 32.6317 30.5837 32.6317 31.6667C32.6317 34.8148 31.5316 37.4907 29.3313 39.6944C27.131 41.8981 24.4592 43 21.3159 43ZM21.3159 39.9778C23.6042 39.9778 25.5593 39.1656 27.1813 37.5411C28.8032 35.9167 29.6142 33.9585 29.6142 31.6667C29.6142 30.8859 29.5073 30.1178 29.2936 29.3622C29.0798 28.6067 28.7592 27.8889 28.3317 27.2089L27.351 25.66L28.9352 22.94L25.0124 20.6733L23.4282 23.3933H21.7685C19.4047 23.3933 17.349 24.1489 15.6014 25.66C13.8537 27.1711 12.9798 29.1481 12.9798 31.5911C12.9798 33.9081 13.7908 35.8852 15.4128 37.5222C17.0347 39.1593 19.0024 39.9778 21.3159 39.9778ZM38.4406 21.8444V18.8222H42.9669V21.8444H38.4406ZM30.1423 13.5333V9H33.1598V13.5333H30.1423ZM37.4976 16.5933L35.3853 14.4778L38.5914 11.2667L40.7037 13.3822L37.4976 16.5933Z" fill="#1C1B1F"/>
</svg>
