<?xml version="1.0" encoding="UTF-8"?>
<svg id="Layer_2" data-name="Layer 2" xmlns="http://www.w3.org/2000/svg" viewBox="0 0 180 180">
  <defs>
    <style>
      .cls-1 {
        fill: #5c5c6d;
      }

      .cls-1, .cls-2 {
        stroke-width: 0px;
      }

      .cls-2 {
        fill: #fff;
      }
    </style>
  </defs>
  <g id="Layer_1-2" data-name="Layer 1">
    <g id="terrible-icon">
      <path class="cls-1" d="M171.44,123.35l-32.42,4.08c-4.25.54-7.56,6.16-9.8,9.71l-18.97,34.32c-5.81,11-19.37,10.34-24.58,3.86l-11.66-27.82c-2.61-3.25-7.12-4.51-11.16-3.11l-36.34,5.41c-8.04,2.78-15.71-4.88-12.44-12.43l13.86-27.86c1.64-3.78.53-8.15-2.76-10.79L3.68,81.94c-6.54-5.26-4.06-13.15,5.05-16.51l25.23-10.75c3.6-1.18,9.05-6.77,10.66-10.69l10.9-31.38c3.29-14.05,23.46-17.65,30.26-4.19l11.03,24.84c2.22,5.21,5.66,4.65,11.16,3.11l37.89-13.12c8.04-2.78,15.71,4.88,12.44,12.43l-15.41,35.57c-1.64,3.78-.53,8.15,2.76,10.79l30.84,24.79c6.54,5.26,3.43,15.44-5.05,16.51Z"/>
      <path class="cls-2" d="M61.81,100.91c-.48,0-.96-.14-1.39-.42-1.15-.77-1.46-2.32-.69-3.47,5.87-8.77,14.83-13.47,25.24-13.17,10.95.3,20.71,5.89,23.82,11.13.71,1.19.31,2.72-.87,3.43-1.19.71-2.72.32-3.43-.87-2.06-3.47-10.04-8.42-19.66-8.69-6.11-.17-14.69,1.6-20.95,10.95-.48.72-1.27,1.11-2.08,1.11Z"/>
      <ellipse class="cls-2" cx="65.42" cy="72.01" rx="4.05" ry="6.06"/>
      <ellipse class="cls-2" cx="95.45" cy="69.09" rx="4.05" ry="6.06"/>
      <path class="cls-2" d="M109.77,79.55c0,1.47-1.34,2.67-3,2.67s-3-1.19-3-2.67c-.39-1.52-2.14-4.4-.48-4.4s6.48,2.92,6.48,4.4Z"/>
      <path class="cls-2" d="M55.5,58.85c-1,0-1.55-.08-1.62-.1-.82-.13-1.37-.91-1.24-1.72.13-.82.91-1.37,1.72-1.24.05,0,5.18.72,14.93-3.27.77-.31,1.64.06,1.96.82.31.77-.05,1.64-.82,1.96-7.51,3.07-12.54,3.55-14.94,3.55Z"/>
      <path class="cls-2" d="M101.66,56.85c1,0,1.55-.08,1.62-.1.82-.13,1.37-.91,1.24-1.72-.13-.82-.91-1.37-1.72-1.24-.05,0-5.18.72-14.93-3.27-.77-.31-1.64.06-1.96.82-.31.77.05,1.64.82,1.96,7.51,3.07,12.54,3.55,14.94,3.55Z"/>
    </g>
  </g>
</svg>