<svg width="21" height="20" viewBox="0 0 21 20" fill="none" xmlns="http://www.w3.org/2000/svg">
<path d="M10.4629 19.1272L9.07781 17.8193C7.46985 16.2935 6.1405 14.9772 5.08975 13.8706C4.039 12.7639 3.20318 11.7704 2.58229 10.8901C1.96139 10.0098 1.52756 9.20076 1.28079 8.46299C1.03403 7.72521 0.910645 6.97066 0.910645 6.19935C0.910645 4.62319 1.41214 3.30692 2.41512 2.25056C3.41811 1.1942 4.66786 0.666016 6.16438 0.666016C6.99224 0.666016 7.7803 0.85046 8.52855 1.21935C9.27681 1.58824 9.92159 2.10804 10.4629 2.77874C11.0042 2.10804 11.649 1.58824 12.3972 1.21935C13.1455 0.85046 13.9335 0.666016 14.7614 0.666016C16.2579 0.666016 17.5077 1.1942 18.5106 2.25056C19.5136 3.30692 20.0151 4.62319 20.0151 6.19935C20.0151 6.97066 19.8917 7.72521 19.645 8.46299C19.3982 9.20076 18.9644 10.0098 18.3435 10.8901C17.7226 11.7704 16.8868 12.7639 15.836 13.8706C14.7853 14.9772 13.4559 16.2935 11.848 17.8193L10.4629 19.1272ZM10.4629 16.4109C11.9912 14.9688 13.249 13.7322 14.236 12.701C15.2231 11.6698 16.0032 10.7727 16.5763 10.0098C17.1495 9.24687 17.5475 8.56778 17.7703 7.97253C17.9932 7.37728 18.1047 6.78622 18.1047 6.19935C18.1047 5.19329 17.7863 4.3549 17.1495 3.6842C16.5126 3.01349 15.7166 2.67814 14.7614 2.67814C14.0131 2.67814 13.3206 2.90031 12.6838 3.34465C12.047 3.789 11.6092 4.3549 11.3703 5.04238H9.55542C9.31662 4.3549 8.8788 3.789 8.24199 3.34465C7.60517 2.90031 6.91263 2.67814 6.16438 2.67814C5.20915 2.67814 4.41313 3.01349 3.77632 3.6842C3.1395 4.3549 2.82109 5.19329 2.82109 6.19935C2.82109 6.78622 2.93254 7.37728 3.15542 7.97253C3.37831 8.56778 3.77632 9.24687 4.34945 10.0098C4.92259 10.7727 5.70268 11.6698 6.68975 12.701C7.67681 13.7322 8.93452 14.9688 10.4629 16.4109Z" fill="white"/>
</svg>
