<svg width="50" height="50" viewBox="0 0 50 50" fill="none" xmlns="http://www.w3.org/2000/svg">
<g clip-path="url(#clip0_1529_6465)">
<path d="M35.8531 28.1251C35.5015 24.9567 34.0839 22.0019 31.8327 19.7449C29.5815 17.488 26.6302 16.0629 23.4628 15.7033C20.2954 15.3437 17.0998 16.0709 14.3999 17.7658C11.7 19.4606 9.65603 22.0224 8.60313 25.0313C6.19045 25.2288 3.94767 26.3519 2.34427 28.1655C0.74087 29.9791 -0.0988484 32.3426 0.000887673 34.7613C0.100624 37.18 1.13208 39.4664 2.87935 41.1418C4.62663 42.8173 6.95425 43.7519 9.37501 43.7501H35.9375C38.0095 43.7389 39.9922 42.905 41.4494 41.432C42.9066 39.959 43.719 37.9674 43.7078 35.8954C43.6966 33.8234 42.8628 31.8407 41.3898 30.3835C39.9167 28.9262 37.9251 28.1139 35.8531 28.1251Z" fill="#627952"/>
<path d="M45.45 30.5375C44.7112 29.235 43.7129 28.0981 42.5169 27.1972C41.3209 26.2963 39.9526 25.6505 38.4969 25.3C37.3885 21.098 34.7296 17.4719 31.0553 15.1515C27.381 12.8311 22.9641 11.9886 18.6937 12.7937C19.8921 10.5869 21.7271 8.79192 23.9599 7.64251C26.1926 6.49311 28.7197 6.0425 31.2121 6.34933C33.7045 6.65616 36.0468 7.70623 37.9342 9.36283C39.8215 11.0194 41.1663 13.2059 41.7937 15.6375C43.6079 15.5448 45.3977 16.0873 46.8552 17.1716C48.3126 18.2558 49.3467 19.8141 49.7796 21.5783C50.2124 23.3426 50.0169 25.2025 49.2267 26.8382C48.4365 28.4739 47.101 29.7799 45.45 30.5375Z" fill="#627952"/>
</g>
<defs>
<clipPath id="clip0_1529_6465">
<rect width="50" height="50" fill="white"/>
</clipPath>
</defs>
</svg>
