<svg width="50" height="50" viewBox="0 0 50 50" fill="none" xmlns="http://www.w3.org/2000/svg">
<g clip-path="url(#clip0_1529_6459)">
<path d="M26.5653 9.5C30.1819 9.49958 33.6866 10.7537 36.4818 13.0486C39.2771 15.3435 41.1896 18.5369 41.8934 22.0844C44.2505 22.4028 46.3984 23.6051 47.9022 25.4479C49.4059 27.2907 50.153 29.6362 49.992 32.0092C49.8311 34.3822 48.7743 36.6054 47.0356 38.2283C45.2969 39.8513 43.0063 40.7527 40.6278 40.75H35.9403C36.3547 40.75 36.7521 40.5854 37.0452 40.2924C37.3382 39.9993 37.5028 39.6019 37.5028 39.1875C37.5028 38.7731 37.3382 38.3757 37.0452 38.0826C36.7521 37.7896 36.3547 37.625 35.9403 37.625H3.28406C2.36296 36.7228 1.60865 35.6649 1.05593 34.5H29.6903C30.1047 34.5 30.5021 34.3354 30.7952 34.0424C31.0882 33.7493 31.2528 33.3519 31.2528 32.9375C31.2528 32.5231 31.0882 32.1257 30.7952 31.8326C30.5021 31.5396 30.1047 31.375 29.6903 31.375H0.112182C-0.0373942 30.3387 -0.0373942 29.2863 0.112182 28.25H23.4403C23.8547 28.25 24.2521 28.0854 24.5452 27.7924C24.8382 27.4993 25.0028 27.1019 25.0028 26.6875C25.0028 26.2731 24.8382 25.8757 24.5452 25.5826C24.2521 25.2896 23.8547 25.125 23.4403 25.125H1.05593C2.03583 23.0579 3.63922 21.35 5.64047 20.2418C7.64172 19.1335 9.9401 18.6806 12.2122 18.9469C13.4197 16.1419 15.4227 13.7522 17.9736 12.0733C20.5245 10.3943 23.5115 9.49972 26.5653 9.5Z" fill="#627952"/>
</g>
<defs>
<clipPath id="clip0_1529_6459">
<rect width="50" height="50" fill="white"/>
</clipPath>
</defs>
</svg>
