<svg width="50" height="50" viewBox="0 0 50 50" fill="none" xmlns="http://www.w3.org/2000/svg">
<g clip-path="url(#clip0_1529_6463)">
<path d="M12.9938 37.5781C13.1885 37.6431 13.3686 37.7458 13.5237 37.8804C13.6788 38.015 13.8058 38.1788 13.8975 38.3625C13.9892 38.5462 14.0438 38.7462 14.0582 38.951C14.0726 39.1559 14.0464 39.3615 13.9813 39.5563L12.4188 44.2438C12.3599 44.4455 12.2609 44.6334 12.1278 44.796C11.9947 44.9586 11.8301 45.0927 11.6439 45.1903C11.4577 45.2878 11.2538 45.3468 11.0443 45.3637C10.8348 45.3806 10.624 45.355 10.4246 45.2886C10.2253 45.2221 10.0413 45.1161 9.88385 44.9769C9.72638 44.8377 9.59861 44.6681 9.5082 44.4784C9.41779 44.2886 9.36659 44.0826 9.35766 43.8726C9.34874 43.6626 9.38227 43.453 9.45625 43.2563L11.0188 38.5688C11.1493 38.1755 11.4307 37.8502 11.8011 37.6645C12.1715 37.4787 12.6005 37.4476 12.9938 37.5781ZM22.3688 37.5781C22.5635 37.6431 22.7436 37.7458 22.8987 37.8804C23.0538 38.015 23.1808 38.1788 23.2725 38.3625C23.3642 38.5462 23.4188 38.7462 23.4332 38.951C23.4476 39.1559 23.4214 39.3615 23.3563 39.5563L20.2313 48.9313C20.1724 49.133 20.0734 49.3209 19.9403 49.4835C19.8072 49.6461 19.6426 49.7802 19.4564 49.8778C19.2702 49.9753 19.0663 50.0343 18.8568 50.0512C18.6473 50.0681 18.4365 50.0425 18.2371 49.9761C18.0378 49.9096 17.8538 49.8036 17.6963 49.6644C17.5389 49.5252 17.4111 49.3556 17.3207 49.1659C17.2303 48.9761 17.1791 48.7701 17.1702 48.5601C17.1612 48.3501 17.1948 48.1405 17.2688 47.9438L20.3938 38.5688C20.5243 38.1755 20.8057 37.8502 21.1761 37.6645C21.5465 37.4787 21.9755 37.4476 22.3688 37.5781ZM31.7438 37.5781C31.9385 37.6431 32.1186 37.7458 32.2737 37.8804C32.4288 38.015 32.5558 38.1788 32.6475 38.3625C32.7392 38.5462 32.7938 38.7462 32.8082 38.951C32.8226 39.1559 32.7964 39.3615 32.7313 39.5563L31.1688 44.2438C31.1099 44.4455 31.0109 44.6334 30.8778 44.796C30.7447 44.9586 30.5801 45.0927 30.3939 45.1903C30.2077 45.2878 30.0038 45.3468 29.7943 45.3637C29.5848 45.3806 29.374 45.355 29.1746 45.2886C28.9753 45.2221 28.7913 45.1161 28.6338 44.9769C28.4764 44.8377 28.3486 44.6681 28.2582 44.4784C28.1678 44.2886 28.1166 44.0826 28.1077 43.8726C28.0987 43.6626 28.1323 43.453 28.2063 43.2563L29.7688 38.5688C29.8993 38.1755 30.1807 37.8502 30.5511 37.6645C30.9215 37.4787 31.3505 37.4476 31.7438 37.5781ZM41.1188 37.5781C41.3135 37.6431 41.4936 37.7458 41.6487 37.8804C41.8038 38.015 41.9308 38.1788 42.0225 38.3625C42.1142 38.5462 42.1688 38.7462 42.1832 38.951C42.1976 39.1559 42.1714 39.3615 42.1063 39.5563L38.9813 48.9313C38.9224 49.133 38.8234 49.3209 38.6903 49.4835C38.5572 49.6461 38.3926 49.7802 38.2064 49.8778C38.0202 49.9753 37.8163 50.0343 37.6068 50.0512C37.3973 50.0681 37.1865 50.0425 36.9871 49.9761C36.7878 49.9096 36.6038 49.8036 36.4463 49.6644C36.2889 49.5252 36.1611 49.3556 36.0707 49.1659C35.9803 48.9761 35.9291 48.7701 35.9202 48.5601C35.9112 48.3501 35.9448 48.1405 36.0188 47.9438L39.1438 38.5688C39.2743 38.1755 39.5557 37.8502 39.9261 37.6645C40.2965 37.4787 40.7255 37.4476 41.1188 37.5781ZM41.8906 15.7094C41.2417 12.438 39.5632 9.46003 37.1006 7.21087C34.638 4.96171 31.5205 3.55933 28.2039 3.20878C24.8872 2.85823 21.5454 3.57788 18.6671 5.26253C15.7887 6.94718 13.5248 9.50846 12.2063 12.5719C10.7276 12.4015 9.22978 12.5348 7.80443 12.9635C6.37909 13.3921 5.05624 14.1072 3.91687 15.0649C2.7775 16.0226 1.84559 17.2028 1.17819 18.5332C0.5108 19.8636 0.121967 21.3162 0.035501 22.8021C-0.0509652 24.288 0.166755 25.7759 0.675332 27.1748C1.18391 28.5736 1.97264 29.8539 2.99324 30.9373C4.01383 32.0207 5.24481 32.8844 6.61082 33.4755C7.97682 34.0666 9.44909 34.3727 10.9375 34.375H40.625C43.0035 34.3777 45.2941 33.4763 47.0328 31.8534C48.7715 30.2304 49.8283 28.0072 49.9892 25.6342C50.1501 23.2612 49.4031 20.9157 47.8993 19.0729C46.3956 17.2301 44.2477 16.0278 41.8906 15.7094Z" fill="#627952"/>
</g>
<defs>
<clipPath id="clip0_1529_6463">
<rect width="50" height="50" fill="white"/>
</clipPath>
</defs>
</svg>
