<svg width="50" height="50" viewBox="0 0 50 50" fill="none" xmlns="http://www.w3.org/2000/svg">
<path d="M25 50C24.5856 50 24.1882 49.8354 23.8951 49.5424C23.6021 49.2493 23.4375 48.8519 23.4375 48.4375V44.3969L21.4188 46.4188C21.1254 46.7117 20.7276 46.8762 20.313 46.8759C19.8983 46.8756 19.5008 46.7106 19.2078 46.4172C18.9148 46.1238 18.7504 45.726 18.7507 45.3114C18.751 44.8968 18.916 44.4992 19.2094 44.2062L23.4375 39.9781V36.5844L21.4188 38.6063C21.2735 38.7513 21.1011 38.8664 20.9113 38.9448C20.7216 39.0232 20.5183 39.0635 20.313 39.0634C19.8983 39.0631 19.5008 38.8981 19.2078 38.6047C18.9148 38.3113 18.7504 37.9135 18.7507 37.4989C18.751 37.0843 18.916 36.6867 19.2094 36.3937L23.4375 32.1656V27.7063L19.575 29.9344L18.0281 35.7156C17.9748 35.9138 17.8829 36.0996 17.7578 36.2623C17.6326 36.425 17.4767 36.5615 17.2988 36.6639C17.1209 36.7664 16.9246 36.8328 16.721 36.8593C16.5175 36.8859 16.3107 36.8721 16.1125 36.8187C15.9143 36.7654 15.7285 36.6735 15.5658 36.5484C15.4031 36.4232 15.2666 36.2673 15.1642 36.0894C15.0618 35.9115 14.9954 35.7152 14.9688 35.5117C14.9422 35.3081 14.956 35.1013 15.0094 34.9031L15.75 32.1469L12.8125 33.8406L11.2625 39.6219C11.1548 40.0222 10.8924 40.3633 10.5332 40.5702C10.1739 40.7771 9.74719 40.8327 9.34688 40.725C8.94657 40.6173 8.60545 40.3549 8.39858 39.9957C8.1917 39.6364 8.13601 39.2097 8.24375 38.8094L8.98438 36.0531L5.48438 38.0719C5.12569 38.2758 4.70091 38.3296 4.30272 38.2215C3.90452 38.1134 3.56526 37.8522 3.35895 37.4948C3.15264 37.1375 3.09604 36.7131 3.20151 36.3142C3.30697 35.9153 3.56593 35.5743 3.92188 35.3656L7.42188 33.3469L4.65938 32.6063C4.46117 32.5529 4.2754 32.461 4.11269 32.3359C3.94998 32.2107 3.81351 32.0548 3.71108 31.8769C3.60864 31.699 3.54225 31.5027 3.51568 31.2992C3.48912 31.0956 3.5029 30.8888 3.55625 30.6906C3.6096 30.4924 3.70147 30.3066 3.82661 30.1439C3.95176 29.9812 4.10772 29.8448 4.2856 29.7423C4.46348 29.6399 4.6598 29.5735 4.86334 29.5469C5.06688 29.5204 5.27366 29.5342 5.47188 29.5875L11.2469 31.1344L14.1844 29.4406L11.4281 28.7C11.2269 28.6498 11.0377 28.5601 10.8715 28.4361C10.7052 28.312 10.5654 28.1562 10.4601 27.9775C10.3547 27.7989 10.286 27.601 10.2579 27.3956C10.2298 27.1901 10.2429 26.9811 10.2964 26.7807C10.3499 26.5803 10.4428 26.3926 10.5696 26.2285C10.6964 26.0644 10.8546 25.9272 11.035 25.8248C11.2154 25.7225 11.4143 25.6571 11.6202 25.6325C11.8262 25.6078 12.0349 25.6244 12.2344 25.6813L18.0156 27.2281L21.875 25L18.0125 22.7719L12.2344 24.3188C12.0349 24.3756 11.8262 24.3922 11.6202 24.3675C11.4143 24.3429 11.2154 24.2775 11.035 24.1751C10.8546 24.0728 10.6964 23.9356 10.5696 23.7715C10.4428 23.6074 10.3499 23.4197 10.2964 23.2193C10.2429 23.0189 10.2298 22.8099 10.2579 22.6044C10.286 22.399 10.3547 22.2011 10.4601 22.0225C10.5654 21.8438 10.7052 21.688 10.8715 21.5639C11.0377 21.4399 11.2269 21.3502 11.4281 21.3L14.1875 20.5594L11.25 18.8656L5.46875 20.4125C5.07105 20.5116 4.65032 20.4505 4.29725 20.2423C3.94419 20.0341 3.68706 19.6956 3.5813 19.2996C3.47554 18.9036 3.52961 18.4819 3.73186 18.1254C3.93411 17.7689 4.26834 17.5061 4.6625 17.3937L7.42188 16.6531L3.92188 14.6344C3.74275 14.5325 3.58553 14.3963 3.45927 14.2334C3.33302 14.0705 3.24023 13.8843 3.18624 13.6855C3.13225 13.4866 3.11813 13.279 3.14469 13.0747C3.17125 12.8703 3.23796 12.6733 3.341 12.4948C3.44403 12.3163 3.58135 12.16 3.74504 12.0349C3.90873 11.9097 4.09556 11.8181 4.29478 11.7655C4.49399 11.7128 4.70166 11.7001 4.90582 11.728C5.10999 11.7559 5.30661 11.8239 5.48438 11.9281L8.98438 13.9469L8.24375 11.1875C8.14463 10.7898 8.20575 10.3691 8.41394 10.016C8.62212 9.66294 8.9607 9.40581 9.35669 9.30005C9.75269 9.19429 10.1744 9.24836 10.5309 9.45061C10.8874 9.65285 11.1501 9.98708 11.2625 10.3813L12.8094 16.1594L15.7469 17.8531L15.0094 15.0938C14.9103 14.696 14.9714 14.2753 15.1796 13.9223C15.3877 13.5692 15.7263 13.3121 16.1223 13.2063C16.5183 13.1005 16.94 13.1546 17.2965 13.3569C17.653 13.5591 17.9158 13.8933 18.0281 14.2875L19.575 20.0656L23.4375 22.2937V17.8344L19.2094 13.6063C18.916 13.3133 18.751 12.9157 18.7507 12.5011C18.7504 12.0865 18.9148 11.6887 19.2078 11.3953C19.5008 11.1019 19.8983 10.9369 20.313 10.9366C20.7276 10.9363 21.1254 11.1008 21.4188 11.3937L23.4375 13.4156V10.0219L19.2094 5.79375C19.0641 5.64868 18.9488 5.47642 18.8701 5.2868C18.7914 5.09718 18.7508 4.89391 18.7507 4.6886C18.7506 4.4833 18.7908 4.27998 18.8693 4.09025C18.9477 3.90051 19.0627 3.72809 19.2078 3.58281C19.3529 3.43754 19.5252 3.32226 19.7148 3.24356C19.9044 3.16486 20.1077 3.12428 20.313 3.12413C20.5183 3.12399 20.7216 3.16428 20.9113 3.24271C21.1011 3.32115 21.2735 3.43618 21.4188 3.58125L23.4375 5.60313V1.5625C23.4375 1.1481 23.6021 0.750671 23.8951 0.457646C24.1882 0.16462 24.5856 0 25 0C25.4144 0 25.8118 0.16462 26.1049 0.457646C26.3979 0.750671 26.5625 1.1481 26.5625 1.5625V5.60313L28.5844 3.58125C28.8778 3.28827 29.2755 3.12384 29.6902 3.12413C30.1048 3.12442 30.5023 3.28942 30.7953 3.58281C31.0883 3.87621 31.2527 4.27397 31.2524 4.6886C31.2521 5.10324 31.0872 5.50077 30.7938 5.79375L26.5625 10.0219V13.4156L28.5844 11.3937C28.8778 11.1008 29.2755 10.9363 29.6902 10.9366C30.1048 10.9369 30.5023 11.1019 30.7953 11.3953C31.0883 11.6887 31.2527 12.0865 31.2524 12.5011C31.2521 12.9157 31.0872 13.3133 30.7938 13.6063L26.5625 17.8344V22.2937L30.425 20.0656L31.9719 14.2844C32.0252 14.0862 32.1171 13.9004 32.2422 13.7377C32.3674 13.575 32.5233 13.4385 32.7012 13.3361C32.8791 13.2336 33.0754 13.1672 33.279 13.1407C33.4825 13.1141 33.6893 13.1279 33.8875 13.1812C34.0857 13.2346 34.2715 13.3265 34.4342 13.4516C34.5969 13.5768 34.7334 13.7327 34.8358 13.9106C34.9382 14.0885 35.0046 14.2848 35.0312 14.4883C35.0578 14.6919 35.044 14.8987 34.9906 15.0969L34.2531 17.8531L37.1906 16.1594L38.7375 10.3781C38.8452 9.97781 39.1076 9.6367 39.4669 9.42982C39.8261 9.22295 40.2528 9.16726 40.6531 9.275C41.0534 9.38274 41.3946 9.6451 41.6014 10.0043C41.8083 10.3636 41.864 10.7903 41.7563 11.1906L41.0188 13.9469L44.5188 11.9281C44.8774 11.7242 45.3022 11.6704 45.7004 11.7785C46.0986 11.8866 46.4379 12.1478 46.6442 12.5052C46.8505 12.8625 46.9071 13.2869 46.8016 13.6858C46.6962 14.0847 46.4372 14.4257 46.0813 14.6344L42.5813 16.6531L45.3406 17.3937C45.7409 17.5015 46.0821 17.7638 46.2889 18.1231C46.4958 18.4823 46.5515 18.9091 46.4438 19.3094C46.336 19.7097 46.0737 20.0508 45.7144 20.2577C45.3552 20.4646 44.9284 20.5202 44.5281 20.4125L38.7531 18.8656L35.8156 20.5594L38.575 21.3C38.9753 21.4077 39.3164 21.6701 39.5233 22.0293C39.7302 22.3886 39.7859 22.8153 39.6781 23.2156C39.5704 23.6159 39.308 23.9571 38.9488 24.1639C38.5895 24.3708 38.1628 24.4265 37.7625 24.3188L31.9875 22.7719L28.125 25L31.9875 27.2281L37.7656 25.6813C38.1659 25.5739 38.5925 25.63 38.9515 25.8372C39.3104 26.0443 39.5724 26.3856 39.6797 26.7859C39.787 27.1862 39.7309 27.6128 39.5238 27.9718C39.3166 28.3307 38.9753 28.5927 38.575 28.7L35.8156 29.4406L38.7531 31.1344L44.5313 29.5875C44.9316 29.4802 45.3581 29.5363 45.7171 29.7434C46.076 29.9506 46.338 30.2919 46.4453 30.6922C46.5526 31.0925 46.4966 31.5191 46.2894 31.878C46.0822 32.237 45.7409 32.4989 45.3406 32.6063L42.5813 33.3469L46.0813 35.3656C46.4372 35.5743 46.6962 35.9153 46.8016 36.3142C46.9071 36.7131 46.8505 37.1375 46.6442 37.4948C46.4379 37.8522 46.0986 38.1134 45.7004 38.2215C45.3022 38.3296 44.8774 38.2758 44.5188 38.0719L41.0188 36.0531L41.7563 38.8125C41.8131 39.0119 41.8297 39.2207 41.805 39.4266C41.7804 39.6325 41.715 39.8315 41.6127 40.0119C41.5103 40.1923 41.3731 40.3505 41.209 40.4773C41.0449 40.6041 40.8572 40.697 40.6568 40.7505C40.4564 40.804 40.2474 40.8171 40.0419 40.789C39.8365 40.7609 39.6386 40.6922 39.46 40.5868C39.2813 40.4815 39.1255 40.3416 39.0014 40.1754C38.8774 40.0092 38.7877 39.82 38.7375 39.6188L37.1906 33.8406L34.2531 32.1469L34.9906 34.9062C35.0897 35.304 35.0286 35.7247 34.8204 36.0778C34.6123 36.4308 34.2737 36.6879 33.8777 36.7937C33.4817 36.8995 33.06 36.8454 32.7035 36.6431C32.347 36.4409 32.0843 36.1067 31.9719 35.7125L30.425 29.9375L26.5625 27.7063V32.1656L30.7938 36.3937C31.0872 36.6867 31.2521 37.0843 31.2524 37.4989C31.2527 37.9135 31.0883 38.3113 30.7953 38.6047C30.5023 38.8981 30.1048 39.0631 29.6902 39.0634C29.2755 39.0637 28.8778 38.8992 28.5844 38.6063L26.5625 36.5844V39.9781L30.7938 44.2062C31.0872 44.4992 31.2521 44.8968 31.2524 45.3114C31.2527 45.726 31.0883 46.1238 30.7953 46.4172C30.5023 46.7106 30.1048 46.8756 29.6902 46.8759C29.2755 46.8762 28.8778 46.7117 28.5844 46.4188L26.5625 44.3969V48.4375C26.5625 48.8519 26.3979 49.2493 26.1049 49.5424C25.8118 49.8354 25.4144 50 25 50Z" fill="#627952"/>
</svg>
