<svg width="50" height="50" viewBox="0 0 50 50" fill="none" xmlns="http://www.w3.org/2000/svg">
<g clip-path="url(#clip0_1529_6468)">
<path d="M25 37.5C28.3152 37.5 31.4946 36.183 33.8388 33.8388C36.183 31.4946 37.5 28.3152 37.5 25C37.5 21.6848 36.183 18.5054 33.8388 16.1612C31.4946 13.817 28.3152 12.5 25 12.5C21.6848 12.5 18.5054 13.817 16.1612 16.1612C13.817 18.5054 12.5 21.6848 12.5 25C12.5 28.3152 13.817 31.4946 16.1612 33.8388C18.5054 36.183 21.6848 37.5 25 37.5ZM25 0C25.4144 0 25.8118 0.16462 26.1049 0.457646C26.3979 0.750671 26.5625 1.1481 26.5625 1.5625V7.8125C26.5625 8.2269 26.3979 8.62433 26.1049 8.91735C25.8118 9.21038 25.4144 9.375 25 9.375C24.5856 9.375 24.1882 9.21038 23.8951 8.91735C23.6021 8.62433 23.4375 8.2269 23.4375 7.8125V1.5625C23.4375 1.1481 23.6021 0.750671 23.8951 0.457646C24.1882 0.16462 24.5856 0 25 0ZM25 40.625C25.4144 40.625 25.8118 40.7896 26.1049 41.0826C26.3979 41.3757 26.5625 41.7731 26.5625 42.1875V48.4375C26.5625 48.8519 26.3979 49.2493 26.1049 49.5424C25.8118 49.8354 25.4144 50 25 50C24.5856 50 24.1882 49.8354 23.8951 49.5424C23.6021 49.2493 23.4375 48.8519 23.4375 48.4375V42.1875C23.4375 41.7731 23.6021 41.3757 23.8951 41.0826C24.1882 40.7896 24.5856 40.625 25 40.625ZM50 25C50 25.4144 49.8354 25.8118 49.5424 26.1049C49.2493 26.3979 48.8519 26.5625 48.4375 26.5625H42.1875C41.7731 26.5625 41.3757 26.3979 41.0826 26.1049C40.7896 25.8118 40.625 25.4144 40.625 25C40.625 24.5856 40.7896 24.1882 41.0826 23.8951C41.3757 23.6021 41.7731 23.4375 42.1875 23.4375H48.4375C48.8519 23.4375 49.2493 23.6021 49.5424 23.8951C49.8354 24.1882 50 24.5856 50 25ZM9.375 25C9.375 25.4144 9.21038 25.8118 8.91735 26.1049C8.62433 26.3979 8.2269 26.5625 7.8125 26.5625H1.5625C1.1481 26.5625 0.750671 26.3979 0.457646 26.1049C0.16462 25.8118 0 25.4144 0 25C0 24.5856 0.16462 24.1882 0.457646 23.8951C0.750671 23.6021 1.1481 23.4375 1.5625 23.4375H7.8125C8.2269 23.4375 8.62433 23.6021 8.91735 23.8951C9.21038 24.1882 9.375 24.5856 9.375 25ZM42.6781 7.32187C42.971 7.61489 43.1356 8.01224 43.1356 8.42656C43.1356 8.84088 42.971 9.23824 42.6781 9.53125L38.2594 13.9531C38.1141 14.0982 37.9417 14.2132 37.7519 14.2917C37.5622 14.3701 37.3589 14.4104 37.1536 14.4102C36.739 14.41 36.3414 14.245 36.0484 13.9516C35.9034 13.8063 35.7883 13.6339 35.7099 13.4441C35.6315 13.2544 35.5912 13.0511 35.5913 12.8458C35.5916 12.4311 35.7566 12.0336 36.05 11.7406L40.4688 7.32187C40.7618 7.02895 41.1591 6.8644 41.5734 6.8644C41.9878 6.8644 42.3851 7.02895 42.6781 7.32187ZM13.95 36.05C14.2429 36.343 14.4075 36.7404 14.4075 37.1547C14.4075 37.569 14.2429 37.9664 13.95 38.2594L9.53125 42.6781C9.23656 42.9627 8.84187 43.1202 8.43219 43.1167C8.0225 43.1131 7.63061 42.9488 7.34091 42.6591C7.05121 42.3694 6.88688 41.9775 6.88332 41.5678C6.87976 41.1581 7.03725 40.7634 7.32187 40.4688L11.7406 36.05C12.0336 35.7571 12.431 35.5925 12.8453 35.5925C13.2596 35.5925 13.657 35.7571 13.95 36.05ZM42.6781 42.6781C42.3851 42.971 41.9878 43.1356 41.5734 43.1356C41.1591 43.1356 40.7618 42.971 40.4688 42.6781L36.05 38.2594C35.7654 37.9647 35.6079 37.57 35.6114 37.1603C35.615 36.7506 35.7793 36.3587 36.069 36.069C36.3587 35.7793 36.7506 35.615 37.1603 35.6114C37.57 35.6079 37.9647 35.7654 38.2594 36.05L42.6781 40.4688C42.971 40.7618 43.1356 41.1591 43.1356 41.5734C43.1356 41.9878 42.971 42.3851 42.6781 42.6781ZM13.95 13.9531C13.657 14.246 13.2596 14.4106 12.8453 14.4106C12.431 14.4106 12.0336 14.246 11.7406 13.9531L7.32187 9.53125C7.17264 9.38711 7.05361 9.2147 6.97172 9.02407C6.88983 8.83344 6.84672 8.62841 6.84492 8.42094C6.84312 8.21347 6.88265 8.00772 6.96122 7.8157C7.03978 7.62367 7.1558 7.44921 7.30251 7.30251C7.44921 7.1558 7.62367 7.03978 7.8157 6.96122C8.00772 6.88265 8.21347 6.84312 8.42094 6.84492C8.62841 6.84672 8.83344 6.88983 9.02407 6.97172C9.2147 7.05361 9.38711 7.17264 9.53125 7.32187L13.95 11.7406C14.0955 11.8858 14.211 12.0582 14.2897 12.248C14.3685 12.4378 14.409 12.6414 14.409 12.8469C14.409 13.0524 14.3685 13.2559 14.2897 13.4457C14.211 13.6356 14.0955 13.808 13.95 13.9531Z" fill="#627952"/>
</g>
<defs>
<clipPath id="clip0_1529_6468">
<rect width="50" height="50" fill="white"/>
</clipPath>
</defs>
</svg>
