<svg width="50" height="50" viewBox="0 0 50 50" fill="none" xmlns="http://www.w3.org/2000/svg">
<g clip-path="url(#clip0_1529_6461)">
<path d="M8.30625 34.4563C8.69892 34.5875 9.02347 34.8691 9.20862 35.2394C9.39377 35.6097 9.42439 36.0384 9.29375 36.4313L7.73125 41.1188C7.6724 41.3205 7.57345 41.5084 7.44031 41.671C7.30718 41.8336 7.14259 41.9677 6.95642 42.0653C6.77024 42.1628 6.5663 42.2218 6.3568 42.2387C6.1473 42.2556 5.93654 42.23 5.73715 42.1636C5.53775 42.0971 5.35381 41.9911 5.19635 41.8519C5.03888 41.7127 4.91111 41.5431 4.8207 41.3534C4.73029 41.1636 4.67909 40.9576 4.67016 40.7476C4.66124 40.5376 4.69477 40.328 4.76875 40.1313L6.33125 35.4438C6.46246 35.0511 6.74414 34.7265 7.11444 34.5414C7.48475 34.3562 7.91339 34.3256 8.30625 34.4563ZM37.9938 34.4563C38.3864 34.5875 38.711 34.8691 38.8961 35.2394C39.0813 35.6097 39.1119 36.0384 38.9813 36.4313L37.4188 41.1188C37.2765 41.497 36.9932 41.8055 36.6284 41.9793C36.2635 42.1531 35.8455 42.1789 35.4621 42.0511C35.0788 41.9233 34.7598 41.6519 34.5722 41.2939C34.3847 40.9359 34.3431 40.5192 34.4563 40.1313L36.0188 35.4438C36.15 35.0511 36.4316 34.7265 36.8019 34.5414C37.1722 34.3562 37.6009 34.3256 37.9938 34.4563ZM14.5563 39.1438C14.9489 39.275 15.2735 39.5566 15.4586 39.9269C15.6438 40.2972 15.6744 40.7259 15.5438 41.1188L13.9813 45.8063C13.9224 46.008 13.8234 46.1959 13.6903 46.3585C13.5572 46.5211 13.3926 46.6552 13.2064 46.7528C13.0202 46.8503 12.8163 46.9093 12.6068 46.9262C12.3973 46.9431 12.1865 46.9175 11.9871 46.8511C11.7878 46.7846 11.6038 46.6786 11.4463 46.5394C11.2889 46.4002 11.1611 46.2306 11.0707 46.0409C10.9803 45.8511 10.9291 45.6451 10.9202 45.4351C10.9112 45.2251 10.9448 45.0155 11.0188 44.8188L12.5813 40.1313C12.7125 39.7386 12.9941 39.414 13.3644 39.2289C13.7347 39.0437 14.1634 39.0131 14.5563 39.1438ZM44.2438 39.1438C44.6364 39.275 44.961 39.5566 45.1461 39.9269C45.3313 40.2972 45.3619 40.7259 45.2313 41.1188L43.6688 45.8063C43.5265 46.1845 43.2432 46.493 42.8784 46.6668C42.5135 46.8406 42.0955 46.8664 41.7121 46.7386C41.3288 46.6108 41.0098 46.3394 40.8222 45.9814C40.6347 45.6234 40.5931 45.2067 40.7063 44.8188L42.2688 40.1313C42.4 39.7386 42.6816 39.414 43.0519 39.2289C43.4222 39.0437 43.8509 39.0131 44.2438 39.1438ZM22.0406 35.2375C22.1705 34.9783 22.37 34.7603 22.6167 34.608C22.8634 34.4557 23.1476 34.375 23.4375 34.375H26.5625C26.81 34.3752 27.0538 34.4341 27.274 34.547C27.4942 34.6599 27.6845 34.8234 27.8291 35.0242C27.9738 35.225 28.0686 35.4573 28.1059 35.7019C28.1433 35.9465 28.1219 36.1965 28.0438 36.4313L27.1688 39.0625H29.6875C29.9815 39.0629 30.2694 39.1463 30.5182 39.303C30.767 39.4598 30.9665 39.6835 31.0937 39.9485C31.221 40.2136 31.271 40.5091 31.2378 40.8013C31.2046 41.0934 31.0897 41.3703 30.9063 41.6L24.6563 49.4125C24.4333 49.6895 24.1224 49.8822 23.7751 49.9586C23.4278 50.0351 23.0648 49.9908 22.7461 49.8331C22.4274 49.6754 22.172 49.4137 22.0221 49.0912C21.8723 48.7687 21.8369 48.4047 21.9219 48.0594L23 43.75H20.3125C20.0461 43.75 19.784 43.6818 19.5513 43.552C19.3186 43.4222 19.123 43.2351 18.983 43.0084C18.8431 42.7816 18.7634 42.5229 18.7516 42.2567C18.7398 41.9905 18.7963 41.7257 18.9156 41.4875L22.0406 35.2375ZM41.8906 12.5844C41.2417 9.31301 39.5632 6.33503 37.1006 4.08587C34.638 1.83671 31.5205 0.434333 28.2039 0.0837796C24.8872 -0.266774 21.5454 0.452884 18.6671 2.13753C15.7887 3.82218 13.5248 6.38346 12.2063 9.44688C10.7276 9.27654 9.22978 9.40979 7.80443 9.83846C6.37909 10.2671 5.05624 10.9822 3.91687 11.9399C2.7775 12.8976 1.84559 14.0778 1.17819 15.4082C0.5108 16.7386 0.121967 18.1912 0.035501 19.6771C-0.0509652 21.163 0.166755 22.6509 0.675332 24.0498C1.18391 25.4486 1.97264 26.7289 2.99324 27.8123C4.01383 28.8957 5.24481 29.7594 6.61082 30.3505C7.97682 30.9416 9.44909 31.2477 10.9375 31.25H40.625C43.0035 31.2527 45.2941 30.3513 47.0328 28.7284C48.7715 27.1054 49.8283 24.8822 49.9892 22.5092C50.1501 20.1362 49.4031 17.7907 47.8993 15.9479C46.3956 14.1051 44.2477 12.9028 41.8906 12.5844Z" fill="#627952"/>
</g>
<defs>
<clipPath id="clip0_1529_6461">
<rect width="50" height="50" fill="white"/>
</clipPath>
</defs>
</svg>
